<svg xmlns="http://www.w3.org/2000/svg" viewBox="0 0 549.23 439.18"><defs><style>.cls-1{fill:#071d61;}.cls-2{fill:none;stroke:#0948eb;stroke-miterlimit:10;stroke-width:0.76px;}.cls-3{fill:#0948eb;}</style></defs><g id="Layer_3" data-name="Layer 3"><rect class="cls-1" x="299.24" y="748.83" width="1440" height="852.68"/></g><g id="Layer_1" data-name="Layer 1"><path class="cls-2" d="M524.61,162.16,188.63,5.64C155-7.18,113,3,96.9,41.38l-95,264.68c-6.78,22,9.39,54.55,35.14,65.08l155,63.33A58.25,58.25,0,0,0,244.83,430l276-171.5C555.78,236.78,559.16,178.84,524.61,162.16Z"/></g><g id="Layer_4" data-name="Layer 4"><circle class="cls-3" cx="215.37" cy="438.8" r="2.91"/><circle class="cls-3" cx="195.33" cy="9.36" r="2.91"/><circle class="cls-3" cx="25.07" cy="244.06" r="2.91"/><circle class="cls-3" cx="348.61" cy="79.75" r="2.91"/><circle class="cls-3" cx="56.86" cy="379.05" r="2.91"/><circle class="cls-3" cx="359.06" cy="359.02" r="2.91"/><circle class="cls-3" cx="498.84" cy="149.57" r="2.91"/><circle class="cls-3" cx="80.86" cy="85.56" r="2.91"/><circle class="cls-3" cx="504.65" cy="268.88" r="2.91"/></g></svg>