<svg xmlns="http://www.w3.org/2000/svg" xmlns:xlink="http://www.w3.org/1999/xlink" viewBox="0 0 549.23 439.18"><defs><style>.cls-1{fill:#071d61;}.cls-2{clip-path:url(#clip-path);}.cls-3,.cls-4{fill:none;stroke-miterlimit:10;}.cls-3{stroke:#25aff5;opacity:0.1;}.cls-4{stroke:#0948eb;stroke-width:0.76px;}.cls-5{fill:#0948eb;}</style><clipPath id="clip-path"><rect class="cls-1" x="-326.39" y="748.83" width="1440" height="852.68"/></clipPath></defs><g id="Layer_3" data-name="Layer 3"><rect class="cls-1" x="-326.39" y="748.83" width="1440" height="852.68"/><g class="cls-2"><path class="cls-3" d="M477,1106.38,921.7,712.15c40.3-41.22,52.18-109.49,6-157.74L599,245.73c-28-24-86.23-21-118.15,10.13l-192.1,187.5a93.42,93.42,0,0,0-27.16,80.48l76,515.4C347.31,1104.58,419.86,1139.54,477,1106.38Z"/></g></g><g id="Layer_1" data-name="Layer 1"><path class="cls-4" d="M524.61,162.16,188.63,5.64C155-7.18,113,3,96.9,41.38l-95,264.68c-6.78,22,9.39,54.55,35.14,65.08l155,63.33A58.25,58.25,0,0,0,244.83,430l276-171.5C555.78,236.78,559.16,178.84,524.61,162.16Z"/></g><g id="Layer_4" data-name="Layer 4"><circle class="cls-5" cx="235.57" cy="434.21" r="2.91"/><circle class="cls-5" cx="174.12" cy="1.38" r="2.91"/><circle class="cls-5" cx="17.32" cy="263.34" r="2.91"/><circle class="cls-5" cx="328.67" cy="70.42" r="2.91"/><circle class="cls-5" cx="75.87" cy="387.28" r="2.91"/><circle class="cls-5" cx="374.85" cy="348.92" r="2.91"/><circle class="cls-5" cx="480.99" cy="141.85" r="2.91"/><circle class="cls-5" cx="75.05" cy="102.75" r="2.91"/><circle class="cls-5" cx="522.33" cy="258.42" r="2.91"/></g></svg>