<?xml version="1.0" encoding="utf-8"?>
<!-- Generator: Adobe Illustrator 24.3.0, SVG Export Plug-In . SVG Version: 6.00 Build 0)  -->
<svg version="1.1" id="Layer_1" xmlns="http://www.w3.org/2000/svg" xmlns:xlink="http://www.w3.org/1999/xlink" x="0px" y="0px"
	 viewBox="0 0 130.5 32.7" style="enable-background:new 0 0 130.5 32.7;" xml:space="preserve">
<style type="text/css">
	.st0{fill:#A3AACC;}
	.st1{fill:#0948EB;}
	.st2{fill:#F1F1EA;}
</style>
<rect y="31.9" class="st0" width="130.5" height="0.8"/>
<rect y="10.9" class="st0" width="36.1" height="3.2"/>
<path class="st1" d="M84.6,2.9c4.3,0,7.8,3.5,7.8,7.8s-3.5,7.9-7.8,7.9s-7.8-3.5-7.8-7.9c0,0,0,0,0,0C76.8,6.4,80.3,2.9,84.6,2.9
	 M84.6,0c-5.9,0-10.7,4.8-10.7,10.7s4.8,10.7,10.7,10.7s10.7-4.8,10.7-10.7S90.5,0,84.6,0C84.6,0,84.6,0,84.6,0z"/>
<circle class="st1" cx="112.7" cy="10.7" r="10.7"/>
<path class="st2" d="M107,11.7l2.8,4.3c0.1,0.2,0.4,0.3,0.6,0.1c0,0,0.1,0,0.1-0.1l9.7-9.7c0.1-0.1,0.1-0.2,0-0.3
	c-0.1,0-0.1-0.1-0.2,0l-9.1,7.4c-0.1,0-0.2,0-0.2,0l-3.3-2c-0.1-0.1-0.2,0-0.3,0.1C107,11.6,107,11.6,107,11.7z"/>
</svg>
