<svg xmlns="http://www.w3.org/2000/svg" viewBox="0 0 549.23 439.18"><defs><style>.cls-1{fill:none;stroke:#0948eb;stroke-miterlimit:10;stroke-width:0.76px;}.cls-2{fill:#0948eb;}</style></defs><g id="Layer_1" data-name="Layer 1"><path class="cls-1" d="M524.61,162.16,188.63,5.64C155-7.18,113,3,96.9,41.38l-95,264.68c-6.78,22,9.39,54.55,35.14,65.08l155,63.33A58.25,58.25,0,0,0,244.83,430l276-171.5C555.78,236.78,559.16,178.84,524.61,162.16Z"/></g><g id="Layer_4" data-name="Layer 4"><circle class="cls-2" cx="271.71" cy="413.54" r="2.91"/><circle class="cls-2" cx="135.76" cy="4.29" r="2.91"/><circle class="cls-2" cx="3.29" cy="302.03" r="2.91"/><circle class="cls-2" cx="290.11" cy="53.01" r="2.91"/><circle class="cls-2" cx="110.14" cy="401.63" r="2.91"/><circle class="cls-2" cx="409.89" cy="327.73" r="2.91"/><circle class="cls-2" cx="439.69" cy="122.73" r="2.91"/><circle class="cls-2" cx="59.49" cy="146.57" r="2.91"/><circle class="cls-2" cx="547.85" cy="219.59" r="2.91"/></g></svg>