<?xml version="1.0" encoding="utf-8"?>
<!-- Generator: Adobe Illustrator 24.3.0, SVG Export Plug-In . SVG Version: 6.00 Build 0)  -->
<svg version="1.1" id="Layer_1" xmlns="http://www.w3.org/2000/svg" xmlns:xlink="http://www.w3.org/1999/xlink" x="0px" y="0px"
	 viewBox="0 0 130.5 32.7" style="enable-background:new 0 0 130.5 32.7;" xml:space="preserve">
<style type="text/css">
	.st0{fill:#A3AACC;}
	.st1{fill:#0948EB;}
	.st2{fill:#F1F1EA;}
</style>
<g id="Layer_1_1_">
	<rect y="31.9" class="st0" width="130.5" height="0.8"/>
	<rect y="10.9" class="st0" width="41.9" height="3.2"/>
	<circle class="st1" cx="84.6" cy="10.7" r="10.7"/>
	<path class="st1" d="M112.7,2.9c4.3,0,7.8,3.5,7.8,7.9c0,4.3-3.5,7.8-7.9,7.8c-4.3,0-7.8-3.5-7.8-7.8
		C104.9,6.4,108.4,2.9,112.7,2.9 M112.7,0C106.8,0,102,4.8,102,10.7s4.8,10.7,10.7,10.7s10.7-4.8,10.7-10.7S118.6,0,112.7,0
		C112.7,0,112.7,0,112.7,0z"/>
	<path class="st2" d="M78.8,11.3l2.8,4.3c0.1,0.2,0.4,0.3,0.6,0.1c0,0,0,0,0.1-0.1L92,6c0.1-0.1,0-0.2,0-0.3c-0.1,0-0.1,0-0.2,0
		l-9,7.3c-0.1,0-0.2,0-0.2,0l-3.3-2c-0.1-0.1-0.2-0.1-0.3,0S78.8,11.2,78.8,11.3z"/>
</g>
</svg>
