<svg xmlns="http://www.w3.org/2000/svg" viewBox="0 0 549.23 439.18"><defs><style>.cls-1{fill:none;stroke:#0948eb;stroke-miterlimit:10;stroke-width:0.76px;}.cls-2{fill:#0948eb;}</style></defs><g id="Layer_1" data-name="Layer 1"><path class="cls-1" d="M524.61,162.16,188.63,5.64C155-7.18,113,3,96.9,41.38l-95,264.68c-6.78,22,9.39,54.55,35.14,65.08l155,63.33A58.25,58.25,0,0,0,244.83,430l276-171.5C555.78,236.78,559.16,178.84,524.61,162.16Z"/></g><g id="Layer_4" data-name="Layer 4"><circle class="cls-2" cx="306.47" cy="391.76" r="2.91"/><circle class="cls-2" cx="105.8" cy="25.54" r="2.91"/><circle class="cls-2" cx="6.19" cy="342.96" r="2.91"/><circle class="cls-2" cx="251.29" cy="34.66" r="2.91"/><circle class="cls-2" cx="153.69" cy="419.35" r="2.91"/><circle class="cls-2" cx="446.48" cy="305.11" r="2.91"/><circle class="cls-2" cx="402.24" cy="105.52" r="2.91"/><circle class="cls-2" cx="46.06" cy="183.34" r="2.91"/><circle class="cls-2" cx="544.95" cy="185.16" r="2.91"/></g></svg>