<svg xmlns="http://www.w3.org/2000/svg" xmlns:xlink="http://www.w3.org/1999/xlink" viewBox="0 0 549.23 439.18"><defs><style>.cls-1{fill:#071d61;}.cls-2{clip-path:url(#clip-path);}.cls-3,.cls-4{fill:none;stroke-miterlimit:10;}.cls-3{stroke:#25aff5;opacity:0.1;}.cls-4{stroke:#0948eb;stroke-width:0.76px;}.cls-5{fill:#0948eb;}</style><clipPath id="clip-path"><rect class="cls-1" x="-974.84" y="748.83" width="1440" height="852.68"/></clipPath></defs><g id="Layer_3" data-name="Layer 3"><rect class="cls-1" x="-974.84" y="748.83" width="1440" height="852.68"/><g class="cls-2"><path class="cls-3" d="M-171.47,1106.38,273.26,712.15c40.3-41.22,52.18-109.49,6-157.74L-49.41,245.73c-28-24-86.23-21-118.14,10.13l-192.1,187.5a93.4,93.4,0,0,0-27.17,80.48l76.05,515.4C-301.13,1104.58-228.58,1139.54-171.47,1106.38Z"/></g></g><g id="Layer_1" data-name="Layer 1"><path class="cls-4" d="M524.61,162.16,188.63,5.64C155-7.18,113,3,96.9,41.38l-95,264.68c-6.78,22,9.39,54.55,35.14,65.08l155,63.33A58.25,58.25,0,0,0,244.83,430l276-171.5C555.78,236.78,559.16,178.84,524.61,162.16Z"/></g><g id="Layer_4" data-name="Layer 4"><circle class="cls-5" cx="261.07" cy="419.39" r="2.91"/><circle class="cls-5" cx="147.74" cy="1.38" r="2.91"/><circle class="cls-5" cx="8.1" cy="290.87" r="2.91"/><circle class="cls-5" cx="301.31" cy="58.82" r="2.91"/><circle class="cls-5" cx="99.6" cy="395.82" r="2.91"/><circle class="cls-5" cx="400.94" cy="333.54" r="2.91"/><circle class="cls-5" cx="450.51" cy="127.54" r="2.91"/><circle class="cls-5" cx="63.39" cy="134.78" r="2.91"/><circle class="cls-5" cx="543.04" cy="231.48" r="2.91"/></g></svg>