<svg xmlns="http://www.w3.org/2000/svg" viewBox="0 0 549.23 439.18"><defs><style>.cls-1{fill:none;stroke:#0948eb;stroke-miterlimit:10;stroke-width:0.76px;}.cls-2{fill:#0948eb;}</style></defs><g id="Layer_1" data-name="Layer 1"><path class="cls-1" d="M524.61,162.16,188.63,5.64C155-7.18,113,3,96.9,41.38l-95,264.68c-6.78,22,9.39,54.55,35.14,65.08l155,63.33A58.25,58.25,0,0,0,244.83,430l276-171.5C555.78,236.78,559.16,178.84,524.61,162.16Z"/></g><g id="Layer_4" data-name="Layer 4"><circle class="cls-2" cx="281.81" cy="407.44" r="2.91"/><circle class="cls-2" cx="124.65" cy="10.1" r="2.91"/><circle class="cls-2" cy="315.59" r="2.91"/><circle class="cls-2" cx="277.81" cy="47.2" r="2.91"/><circle class="cls-2" cx="121.03" cy="405.53" r="2.91"/><circle class="cls-2" cx="418.89" cy="321.92" r="2.91"/><circle class="cls-2" cx="427.08" cy="116.92" r="2.91"/><circle class="cls-2" cx="54.68" cy="158.92" r="2.91"/><circle class="cls-2" cx="548.85" cy="205.56" r="2.91"/></g></svg>